<svg id="Layer_1" data-name="Layer 1" xmlns="http://www.w3.org/2000/svg" viewBox="0 0 599.2 90.1"><path d="M5.9,54.1H9.33v90.1H5.9Zm5.23,0h3.42V74.83H11.13Zm0,67.58h3.42V144.2H11.13ZM16.35,54.1h3.43V74.83H16.35Zm0,67.58h3.43V144.2H16.35ZM21.58,54.1H25V74.83H21.58Zm0,32.26H25V93.3H21.58Zm0,16.85H25v6.94H21.58Zm0,18.47H25V144.2H21.58ZM26.81,54.1h3.42V74.83H26.81Zm0,32.26h3.42V93.3H26.81Zm0,16.85h3.42v6.94H26.81Zm0,18.47h3.42V144.2H26.81ZM32,54.1h3.43V75.19c-1.18-.18-2.35-.27-3.43-.36Zm3.16,35.77c0,2.53-1.45,3.25-3.16,3.34V86.45C33.74,86.63,35.19,87.26,35.19,89.87ZM32,103.21c1.8.18,3.43.81,3.43,3.42S33.83,110,32,110.15Zm3.43,18.2V144.2H32V121.68C33.11,121.59,34.28,121.59,35.46,121.41Zm1.8-67.31h3.42V76.63a21.87,21.87,0,0,0-3.42-1.17Zm3.42,66V144.2H37.26V121.14A15.12,15.12,0,0,0,40.68,120.06Zm5.23-66V81.76a9.53,9.53,0,0,0-3.43-4.05V54.1ZM42.48,97.17a10.46,10.46,0,0,0,3.43-4v8.47a10.08,10.08,0,0,0-3.43-3.07Zm0,22A9.58,9.58,0,0,0,45.91,116v28.2H42.48Zm5.41-10.73a17.53,17.53,0,0,0-.18-2.25V54.1h3.42v90.1H47.71V111.05A24,24,0,0,0,47.89,108.43Z" transform="translate(-5.9 -54.1)"/><path d="M52.94,54.1h3.42v90.1H52.94Zm8.65,0V74.83H58.16V54.1Zm-3.43,58.21a15.7,15.7,0,0,0,3.43,5.31V144.2H58.16ZM63.39,54.1h3.42V74.83H63.39Zm3.42,66.77V144.2H63.39V119.07A13.71,13.71,0,0,0,66.81,120.87Zm1.8-66.77H72v55.5c-3.43-1.53-3.43-5.49-3.43-8.92Zm0,67.4a34,34,0,0,0,3.43.63V144.2H68.61Zm5.23-67.4h3.42v56.05a8.75,8.75,0,0,1-1.62.09c-.63,0-1.26-.09-1.8-.09Zm1.71,68.21h1.71V144.2H73.84V122.31ZM82.49,54.1v46.58c0,3.43,0,7.39-3.42,8.92V54.1Zm-3.42,68a33.26,33.26,0,0,0,3.42-.63v22.7H79.07Zm5.22-68h3.43V74.83H84.29Zm3.43,65.06v25H84.29V121A17.6,17.6,0,0,0,87.72,119.16Zm1.8-65.06h3.42V74.83H89.52Zm3.42,58.48V144.2H89.52V117.71A17.05,17.05,0,0,0,92.94,112.58Zm1.8-12.26V54.1h3.43v90.1H94.74Z" transform="translate(-5.9 -54.1)"/><path d="M100,54.1h3.43V74.83H101l2.44,5.22V144.2H100Zm5.23,0h3.42V74.83H105.2Zm0,29.92,3.42,7.38v52.8H105.2Zm5.22-29.92h3.43V74.83h-3.43Zm0,41.18,3.43,7.39V144.2h-3.43Zm5.23-41.18h3.42V86.63l-3.42-7.75Zm0,67.58h3.42V144.2h-3.42ZM124.3,54.1V78.88l-3.42,7.57V54.1Zm-3.42,67.58h3.42V144.2h-3.42ZM126.1,54.1h3.43V74.83H126.1Zm3.43,41.18V144.2H126.1V102.67Zm1.8-41.18h3.42V74.83h-3.42Zm0,37.3L134.75,84V144.2h-3.42Zm5.22-11.35L139,74.83h-2.44V54.1H140v90.1h-3.43Z" transform="translate(-5.9 -54.1)"/><path d="M157.46,54.1h3.42V93.66a30.91,30.91,0,0,0-.36,5,28.17,28.17,0,0,0,.36,4.87V144.2h-3.42Zm8.65,0V81.49a23.28,23.28,0,0,0-3.43,5.59v-33ZM162.68,110a22.07,22.07,0,0,0,3.43,5.4V144.2h-3.43Zm8.65-55.87v23a24,24,0,0,0-3.42,2.52V54.1Zm-3.42,63.07a23.48,23.48,0,0,0,3.42,2.44V144.2h-3.42Zm5.23-63.07h3.42V75a21.87,21.87,0,0,0-3.42,1.17Zm3.42,34.42v19.55c-2.16-2.07-3.42-5.4-3.42-9.64S174.4,90.68,176.56,88.52Zm0,33.07V144.2h-3.42V120.51A21.61,21.61,0,0,0,176.56,121.59Zm1.8-67.49h3.43V74.19c-1.18.09-2.35.18-3.43.36Zm0,33.07a8.42,8.42,0,0,1,3.43-1v24.24a9.88,9.88,0,0,1-3.43-1Zm3.43,35.14V144.2h-3.43V122C179.44,122.13,180.61,122.22,181.79,122.31ZM187,54.1V74.46a21.06,21.06,0,0,0-3.42-.27V54.1Zm0,33v22.34a8.27,8.27,0,0,1-3.42,1V86.09A8.42,8.42,0,0,1,187,87.08ZM187,122V144.2h-3.42V122.31C184.76,122.22,185.93,122.13,187,122Zm5.23-67.85V75.91a21.73,21.73,0,0,0-3.43-1.08V54.1Zm-3.43,34.24c2.17,2.07,3.43,5.5,3.43,9.82s-1.26,7.84-3.43,9.91Zm0,33.25a22.29,22.29,0,0,0,3.43-1.26V144.2h-3.43ZM194,54.1h3.42V79.15A17.7,17.7,0,0,0,194,76.81Zm0,65.33a18.67,18.67,0,0,0,3.42-2.53v27.3H194Zm8.65-65.33V86.36A22.11,22.11,0,0,0,199.27,81V54.1Zm0,55.23V144.2h-3.42V115A22,22,0,0,0,202.69,109.33Zm1.8-6.66a30.4,30.4,0,0,0,.36-5,28.05,28.05,0,0,0-.36-4.86V54.1h3.43v90.1h-3.43Z" transform="translate(-5.9 -54.1)"/><path d="M209.72,54.1h3.42v90.1h-3.42Zm8.65,0V74.83h-3.43V54.1Zm-3.43,58.21a16,16,0,0,0,3.43,5.31V144.2h-3.43Zm5.23-58.21h3.42V74.83h-3.42Zm3.42,66.77V144.2h-3.42V119.07A13.71,13.71,0,0,0,223.59,120.87ZM225.4,54.1h3.42v55.5c-3.42-1.53-3.42-5.49-3.42-8.92Zm0,67.4a33.26,33.26,0,0,0,3.42.63V144.2H225.4Zm5.22-67.4h3.43v56.05a8.81,8.81,0,0,1-1.63.09c-.63,0-1.26-.09-1.8-.09Zm1.71,68.21h1.72V144.2h-3.43V122.31Zm6.94-68.21v46.58c0,3.43,0,7.39-3.42,8.92V54.1Zm-3.42,68a33.26,33.26,0,0,0,3.42-.63v22.7h-3.42Zm5.22-68h3.43V74.83h-3.43Zm3.43,65.06v25h-3.43V121A17.31,17.31,0,0,0,244.5,119.16Zm1.8-65.06h3.42V74.83H246.3Zm3.42,58.48V144.2H246.3V117.71A17.05,17.05,0,0,0,249.72,112.58Zm1.81-12.26V54.1H255v90.1h-3.42Z" transform="translate(-5.9 -54.1)"/><path d="M256.75,54.1h3.43v90.1h-3.43Zm5.23,0h3.42V74.83H262Zm0,67.58h3.42V144.2H262Zm5.23-67.58h3.42V74.83h-3.42Zm0,67.58h3.42V144.2h-3.42Zm5.22-67.58h3.43V74.83h-3.43Zm0,32.26h3.43V97.62h-3.43Zm0,22.07h3.43V144.2h-3.43Zm5.23-54.33h3.42V75c-1.17-.09-2.34-.18-3.42-.18Zm0,32.26h.09c1.17,0,2.25,0,3.33.09V97.53c-1,.09-2.16.09-3.33.09h-.09Zm0,22.25,3.42,5.14V144.2h-3.42Zm8.65-54.51V75.64c-1.08-.18-2.26-.36-3.43-.45V54.1Zm-3.43,32.71c2,.54,3.43,1.89,3.43,5.13s-1.35,4.69-3.43,5.32Zm0,29.73,3.43,5.14V144.2h-3.43Zm5.23-62.44h3.42V77.53a16.23,16.23,0,0,0-3.42-1.44Zm0,67.58h3.42V144.2h-3.42Zm3.42-16.13v3.6l-1.89-2.7A18,18,0,0,0,291.53,105.55Zm5.23-51.45V82.39a11.59,11.59,0,0,0-3.42-3.78V54.1Zm-3.42,50.37a12.49,12.49,0,0,0,3.42-3.79v15.95l-3.42-4.86Zm0,17.21h3.42V144.2h-3.42Zm5.58-30.1a20.6,20.6,0,0,0-.36-4.23V54.1H302v90.1h-3.43V121.68h1.71l-1.71-2.43V95.73A19.74,19.74,0,0,0,298.92,91.58Z" transform="translate(-5.9 -54.1)"/><path d="M319.47,54.1h3.42v90.1h-3.42Zm5.22,0h3.43V74.83h-3.43Zm0,67.58h3.43V144.2h-3.43Zm5.23-67.58h3.42V74.83h-3.42Zm0,67.58h3.42V144.2h-3.42Zm5.22-67.58h3.43V74.92c-1.26-.09-2.43-.09-3.34-.09h-.09Zm0,32.35h.28c1,0,2.07,0,3.15.09v23.52h-3.43Zm0,35.23h3.43V144.2h-3.43Zm5.23-67.58h3.42V75.46a23.81,23.81,0,0,0-3.42-.45Zm0,32.62a11.3,11.3,0,0,1,3.42.9v21.44a11.18,11.18,0,0,1-3.42.82Zm3.42,34.42V144.2h-3.42V121.59A23.81,23.81,0,0,0,343.79,121.14Zm1.81-67H349V76.9a25,25,0,0,0-3.42-1.08ZM349,98c0,5.32-1.35,8.29-3.42,10V88.7C347.67,90.32,349,93.12,349,98Zm0,21.81V144.2H345.6V120.78A16.34,16.34,0,0,0,349,119.79Zm1.8-65.69h3.43V79.78a19.32,19.32,0,0,0-3.43-2.07Zm3.43,62.71V144.2h-3.43V119A15.64,15.64,0,0,0,354.25,116.81Zm1.8-62.71h3.42V86.54a17.2,17.2,0,0,0-3.42-5.05Zm3.42,55.78V144.2h-3.42v-29A17.42,17.42,0,0,0,359.47,109.88ZM361.63,98a30.6,30.6,0,0,0-.36-5.13V54.1h3.43v90.1h-3.43V103.3A32.25,32.25,0,0,0,361.63,98Z" transform="translate(-5.9 -54.1)"/><path d="M366.5,54.1h3.42v90.1H366.5Zm5.23,0h3.42V74.83h-3.42Zm0,67.58h3.42V144.2h-3.42ZM377,54.1h3.43V74.83H377Zm0,67.58h3.43V144.2H377Zm5.23-67.58h3.42V74.83h-3.42Zm0,32.35h3.42v6.22h-3.42Zm0,17.21h3.42v6.4h-3.42Zm0,18h3.42V144.2h-3.42ZM387.4,54.1h3.43V74.83H387.4Zm0,32.35h3.43v6.22H387.4Zm0,17.21h3.43v6.4H387.4Zm0,18h3.43V144.2H387.4Zm5.23-67.58h3.42V74.83h-3.42Zm0,32.35h3.42v6.22h-3.42Zm0,17.21h3.42v6.4h-3.42Zm0,18h3.42V144.2h-3.42Zm5.23-67.58h3.42V74.83h-3.42Zm0,32.35h3.42v23.61h-3.42Zm0,35.23h3.42V144.2h-3.42Zm5.22-67.58h3.43v90.1h-3.43Z" transform="translate(-5.9 -54.1)"/><path d="M408.31,54.1h3.42v31a13.74,13.74,0,0,0-.27,2.7,14,14,0,0,0,.27,2.79v23.16l-1.53,3.06c.45.36,1,.72,1.53,1.08V144.2h-3.42Zm8.65,0V77.26a14.06,14.06,0,0,0-3.42,3.51V54.1ZM413.54,95a14.42,14.42,0,0,0,3.42,3.6v9.1l-1.62-1.08-1.8,3.61ZM417,120.42V144.2h-3.42V118.89C414.62,119.43,415.79,120,417,120.42Zm1.8-66.32h3.43V74.92a19.14,19.14,0,0,0-3.43,1.35Zm3.43,47.67v8.29a28.09,28.09,0,0,1-3.43-1.36V99.87A24.93,24.93,0,0,0,422.19,101.77Zm0,20V144.2h-3.43V121A20.93,20.93,0,0,0,422.19,121.77ZM424,54.1h3.42V74.19c-1.17.09-2.34.18-3.42.36Zm3.42,31.45v5.67c-2.07-1-3.42-1.89-3.42-3.33C424,86.72,425.07,85.73,427.41,85.55Zm0,18.65V111a15.53,15.53,0,0,1-3.42-.45v-7.84C425.16,103.21,426.33,103.66,427.41,104.2Zm0,18.11V144.2H424V122A21.06,21.06,0,0,0,427.41,122.31Zm1.8-68.21h3.43V74.55c-1.08-.18-2.25-.27-3.43-.36Zm0,31.45a20.81,20.81,0,0,1,3.43.63V93.3c-1.17-.45-2.35-.9-3.43-1.36Zm3.43,22.88c0,1.26-1.08,2.17-3.43,2.44V105C431.29,106.09,432.64,107.08,432.64,108.43Zm-3.43,13.88c1.18-.09,2.35-.18,3.43-.36V144.2h-3.43Zm5.23-68.21h3.42V75.91a21.61,21.61,0,0,0-3.42-1.08Zm3.42,34.33v7.48a24.78,24.78,0,0,0-3.42-1.8v-7.3A23.76,23.76,0,0,1,437.86,88.43Zm-3.42,33.16a19.33,19.33,0,0,0,3.42-1.35v24h-3.42Zm8.65-67.49V78.43c-1.08-.63-2.25-1.26-3.42-1.8V54.1ZM439.67,89,443.09,82v18.65a16.14,16.14,0,0,0-3.42-3.6Zm0,30.19a11.73,11.73,0,0,0,3.42-3.52V144.2h-3.42Zm5.22-65.06h3.43v90.1h-3.43V111.14a16.68,16.68,0,0,0,.27-3,15.17,15.17,0,0,0-.27-3Z" transform="translate(-5.9 -54.1)"/><path d="M450.12,54.1h3.42v90.1h-3.42Zm5.22,0h3.43V74.83h-3.43Zm0,67.58h3.43V144.2h-3.43Zm5.23-67.58H464V74.83h-3.43Zm0,67.58H464V144.2h-3.43ZM465.8,54.1h3.42v90.1H465.8Z" transform="translate(-5.9 -54.1)"/><path d="M471,54.1h3.43V93.48a29.82,29.82,0,0,0-.36,5,29.24,29.24,0,0,0,.36,5V144.2H471Zm8.65,0V81.58a24.54,24.54,0,0,0-3.42,5.5v-33Zm-3.42,55.78a20.47,20.47,0,0,0,3.42,5.4V144.2h-3.42ZM484.9,54.1V77.35a18.55,18.55,0,0,0-3.43,2.43V54.1Zm0,65.33V144.2h-3.43V117.08A18.13,18.13,0,0,0,484.9,119.43Zm1.8-65.33h3.42V75.19a21.87,21.87,0,0,0-3.42,1.17Zm3.42,34.69v19.1c-2.16-2-3.42-5.13-3.42-9.28C486.7,94.29,488,91,490.12,88.79Zm0,32.71v22.7H486.7V120.33A21.87,21.87,0,0,0,490.12,121.5Zm1.81-67.4h3.42V74.28c-1.17.09-2.34.27-3.42.45Zm3.42,32.17v24.06a10,10,0,0,1-3.42-1.09V87.44A12.75,12.75,0,0,1,495.35,86.27Zm0,36v22h-3.42V121.86A21,21,0,0,0,495.35,122.22Zm1.8-68.12h3.43V74.37c-1-.09-2-.18-3-.18h-.45Zm.54,32a15.08,15.08,0,0,1,2.89.27V93h-3.43V86.09Zm-.54,17.66h3.43V110a12.74,12.74,0,0,1-3.43.45Zm0,18.56c1.17,0,2.35-.09,3.43-.18V144.2h-3.43ZM505.8,54.1V75.37a21.07,21.07,0,0,0-3.42-.82V54.1Zm-3.42,32.8a13.51,13.51,0,0,1,3.42,1.71V93h-3.42Zm0,35a21.05,21.05,0,0,0,3.42-.81V144.2h-3.42ZM511,54.1V77.89a17.57,17.57,0,0,0-3.43-1.8v-22ZM507.6,85.64,511,80V93H507.6Zm0,34.78a19.89,19.89,0,0,0,3.43-1.9V144.2H507.6Zm5.23-66.32h3.42v90.1h-3.42Z" transform="translate(-5.9 -54.1)"/><path d="M518.06,54.1h3.42v90.1h-3.42Zm5.22,0h3.43V74.83h-3.43Zm0,67.58h3.43V144.2h-3.43Zm5.23-67.58h3.42V74.83h-3.42Zm0,67.58h3.42V144.2h-3.42Zm5.23-67.58h3.42V80.5l-3.42-5.67Zm0,44.42,3.42,5.68v40h-3.42ZM539,54.1h3.42V89.15L539,83.48Zm0,53.07,3.42,5.68V144.2H539Zm5.23-53.07h3.42V97.89l-3.42-5.68Zm0,61.72,3.42,5.68v22.7h-3.42Zm5.22-61.72h3.43V74.83h-3.43Zm0,67.58h3.43V144.2h-3.43Zm5.23-67.58h3.42V74.83h-3.42Zm0,67.58h3.42V144.2h-3.42Zm5.23-67.58h3.42v90.1h-3.42Z" transform="translate(-5.9 -54.1)"/><path d="M565.09,54.1h3.43v31a13.74,13.74,0,0,0-.27,2.7,14,14,0,0,0,.27,2.79v23.16L567,116.81c.46.36,1,.72,1.54,1.08V144.2h-3.43Zm8.65,0V77.26a14.06,14.06,0,0,0-3.42,3.51V54.1ZM570.32,95a14.42,14.42,0,0,0,3.42,3.6v9.1l-1.62-1.08-1.8,3.61Zm3.42,25.41V144.2h-3.42V118.89C571.4,119.43,572.57,120,573.74,120.42Zm1.8-66.32H579V74.92a19.75,19.75,0,0,0-3.43,1.35ZM579,101.77v8.29a29.43,29.43,0,0,1-3.43-1.36V99.87A26.15,26.15,0,0,0,579,101.77Zm0,20V144.2h-3.43V121A21.42,21.42,0,0,0,579,121.77Zm1.8-67.67h3.42V74.19c-1.17.09-2.34.18-3.42.36Zm3.42,31.45v5.67c-2.07-1-3.42-1.89-3.42-3.33C580.77,86.72,581.85,85.73,584.19,85.55Zm0,18.65V111a15.53,15.53,0,0,1-3.42-.45v-7.84C581.94,103.21,583.11,103.66,584.19,104.2Zm0,18.11V144.2h-3.42V122A21.06,21.06,0,0,0,584.19,122.31ZM586,54.1h3.42V74.55c-1.08-.18-2.25-.27-3.42-.36Zm0,31.45a20.88,20.88,0,0,1,3.42.63V93.3c-1.17-.45-2.34-.9-3.42-1.36Zm3.42,22.88c0,1.26-1.08,2.17-3.42,2.44V105C588.07,106.09,589.42,107.08,589.42,108.43ZM586,122.31c1.17-.09,2.34-.18,3.42-.36V144.2H586Zm5.22-68.21h3.43V75.91a21.73,21.73,0,0,0-3.43-1.08Zm3.43,34.33v7.48a24.9,24.9,0,0,0-3.43-1.8v-7.3A23.88,23.88,0,0,1,594.65,88.43Zm-3.43,33.16a19.44,19.44,0,0,0,3.43-1.35v24h-3.43Zm8.65-67.49V78.43c-1.08-.63-2.25-1.26-3.42-1.8V54.1ZM596.45,89,599.87,82v18.65a16.14,16.14,0,0,0-3.42-3.6Zm0,30.19a11.73,11.73,0,0,0,3.42-3.52V144.2h-3.42Zm5.22-65.06h3.43v90.1h-3.43V111.14a16.68,16.68,0,0,0,.27-3,15.17,15.17,0,0,0-.27-3Z" transform="translate(-5.9 -54.1)"/></svg>